# xmcd
#
# Track frame offsets:
# 150
# 25240
# 46470
# 83323
# 96770
# 120365
# 146430
# 168373
# 196355
# 219713
# 233170
# 250183
# 271933
#
# Disc length: 4089 seconds
#
#
# Revision: 0
# Processed by: cddbd v1.5.2PL0 Copyright (c) Steve Scherf et al.
# Submitted via: Nero 7, 11, 10, 0 
#
DISCID=a60ff70d
DTITLE=Colin Dussault - Moving On
DYEAR=1998
DGENRE=Blues
TTITLE0=Fire and Rain
TTITLE1=Good Booty and Barbeque
TTITLE2=Tidioute, Pennsylvania Revisted
TTITLE3=Walking By Myself
TTITLE4=You Can't Get That Stuff No More
TTITLE5=You Don't Love Me
TTITLE6=Little Chicken Wing Girl
TTITLE7=Telephone Answering Machine Blues
TTITLE8=O.J. Simpson's DNA
TTITLE9=President Clinton's Blues
TTITLE10=One Beer Bottle
TTITLE11=I Can't Be Satisfied
TTITLE12=Evil
EXTD=
EXTT0=Fire and Rain
EXTT1=Good Booty and Barbeque
EXTT2=Tidioute, Pennsylvania Revisted
EXTT3=Walking By Myself
EXTT4=You Can't Get That Stuff No More
EXTT5=You Don't Love Me
EXTT6=Little Chicken Wing Girl
EXTT7=Telephone Answering Machine Blues
EXTT8=O.J. Simpson's DNA
EXTT9=President Clinton's Blues
EXTT10=One Beer Bottle
EXTT11=I Can't Be Satisfied
EXTT12=Evil
PLAYORDER=
